# xmcd
#
# Track frame offsets: 
#        150
#        25050
#        46735
#        66522
#        98027
#        123244
#        141578
#        179797
#        208018
#        254754
#        285593
#
# Disc length: 4161 seconds
#
# Revision: 18
# Processed by: cddbd v1.5.2PL0 Copyright (c) Steve Scherf et al.
# Submitted via: ExactAudioCopy v1.0b3
#
DISCID=ad103f0b
DTITLE=レッド・ツェッペリン - マザーシップ～レッド・ツェッペリン・ベスト CD2
DYEAR=2007
DGENRE=Hard Rock
TTITLE0=永遠の詩
TTITLE1=丘のむこうに
TTITLE2=ディジャ・メイク・ハー
TTITLE3=ノー・クォーター
TTITLE4=トランプルド・アンダー・フット
TTITLE5=聖なる館
TTITLE6=カシミール
TTITLE7=俺の罪
TTITLE8=アキレス最後の戦い
TTITLE9=イン・ジ・イヴニング
TTITLE10=オール・マイ・ラヴ
EXTD=YEAR: 2007
EXTT0=
EXTT1=
EXTT2=
EXTT3=
EXTT4=
EXTT5=
EXTT6=
EXTT7=
EXTT8=
EXTT9=
EXTT10=
PLAYORDER=
